<?xml version="1.0" encoding="utf-8"?>
<!-- Generator: Adobe Illustrator 21.0.2, SVG Export Plug-In . SVG Version: 6.00 Build 0)  -->
<svg version="1.1" id="Layer_1" xmlns="http://www.w3.org/2000/svg" xmlns:xlink="http://www.w3.org/1999/xlink" x="0px" y="0px"
	 viewBox="0 0 38 38" style="enable-background:new 0 0 38 38;" xml:space="preserve">
<style type="text/css">
	.st0{fill:#F7941D;}
	.st1{fill:#FFFFFF;}
	.st2{opacity:0.1;fill:#010101;}
	.st3{fill:#D1D3D4;}
</style>
<g>
	<rect x="0" class="st0" width="38" height="38"/>
</g>
<g>
	<g>
		<path class="st1" d="M23.5,27.6c-0.3,0-0.5-0.3-0.5-0.5l-0.7-7.4h-6.6L15,27.1c0,0.3-0.3,0.5-0.5,0.5c-0.2,0-0.4,0-0.6,0.1
			c0,0,0,0,0,0c0,0.1,0.2,0.5,0.6,1c0.2,0.3,0.4,0.6,0.7,0.9c0.3,0.3,0.6,0.7,0.9,1c0.3,0.3,0.7,0.6,1,0.9c0.3,0.3,0.6,0.5,0.9,0.7
			c0.6,0.4,1,0.6,1,0.6h0c0,0,0,0,0,0c0,0,0.5-0.2,1-0.6c0.3-0.2,0.6-0.4,0.9-0.7c0.3-0.3,0.7-0.6,1-0.9c0.3-0.3,0.6-0.7,0.9-1
			c0.3-0.3,0.5-0.6,0.7-0.9c0.4-0.5,0.6-0.9,0.6-1c0,0,0,0,0,0C23.9,27.6,23.6,27.6,23.5,27.6z"/>
		<g>
			<path class="st1" d="M26.2,16.4c-0.5-0.3-1.3,0.3-1.8,1.4c-0.4,1.1-0.4,2.3,0.2,2.6c0.5,0.3,1.3-0.3,1.8-1.4
				C26.8,17.9,26.7,16.7,26.2,16.4z"/>
			<path class="st1" d="M11.8,16.4c0.5-0.3,1.3,0.3,1.8,1.4c0.4,1.1,0.4,2.3-0.2,2.6c-0.5,0.3-1.3-0.3-1.8-1.4
				C11.2,17.9,11.2,16.7,11.8,16.4z"/>
		</g>
		<path class="st1" d="M26.4,14.4c0,5.2-3.3,11.1-7.4,11.1c-4.1,0-7.4-5.9-7.4-11.1c0-5.2,3.3-7.8,7.4-7.8
			C23.1,6.6,26.4,9.2,26.4,14.4z"/>
		<path class="st2" d="M19,25.5c-1.3,0-2.6-0.6-3.7-1.7l0,0.4c1.1,1.1,2.4,1.7,3.7,1.7c1.4,0,2.6-0.7,3.7-1.7l0-0.4
			C21.6,24.8,20.3,25.5,19,25.5z"/>
		<path class="st3" d="M32.2,29.9c1.2,1.6,0,8,0,8H5.8c0,0-1.2-6.4,0-8c1.1-1.4,5.8-2.1,8-2.3c0,0,0,0,0,0c0,0.1,0.2,0.5,0.6,1
			c0.2,0.3,0.4,0.6,0.7,0.9c0.3,0.3,0.6,0.7,0.9,1c0.3,0.3,0.7,0.6,1,0.9c0.3,0.3,0.6,0.5,0.9,0.7c0.6,0.4,1,0.6,1,0.6h0
			c0,0,0,0,0,0c0,0,0.5-0.2,1-0.6c0.3-0.2,0.6-0.4,0.9-0.7c0.3-0.3,0.7-0.6,1-0.9c0.3-0.3,0.6-0.7,0.9-1c0.3-0.3,0.5-0.6,0.7-0.9
			c0.4-0.5,0.6-0.9,0.6-1c0,0,0,0,0,0C26.3,27.9,31,28.5,32.2,29.9z"/>
	</g>
	<path class="st3" d="M26.4,13.5c0-0.3-0.1-0.7-0.1-1c-0.1-0.7-0.3-1.4-0.7-2.2c-0.4-0.7-0.8-1.5-1.5-2.1c-0.7-0.6-1.5-1.1-2.4-1.4
		C20.9,6.5,20,6.4,19,6.4l-0.7,0c-0.2,0-0.5,0.1-0.7,0.1c-0.5,0.1-0.9,0.2-1.4,0.3c-0.9,0.3-1.7,0.8-2.4,1.4
		c-0.7,0.6-1.2,1.3-1.5,2.1c-0.4,0.7-0.5,1.5-0.7,2.2c0,0.3-0.1,0.7-0.1,1c0,0.3,0,0.6,0,0.9c0.1,0.6,0.1,1.1,0.1,1.5
		c0.2,0.8,0.2,1.3,0.2,1.3l0.7,0.1c0,0,0.2-5.9,2.4-6.8c2.2-0.8,4,0,4,0s1.8-0.8,4,0c2.2,0.8,2.4,6.8,2.4,6.8l0.7-0.1
		c0,0,0.1-0.5,0.2-1.3c0.1-0.4,0.1-0.9,0.1-1.5C26.4,14.1,26.4,13.8,26.4,13.5z"/>
</g>
<ellipse transform="matrix(0.2027 -0.9792 0.9792 0.2027 -1.9523 28.7034)" class="st1" cx="16.6" cy="15.6" rx="2.1" ry="1.8"/>
<ellipse transform="matrix(0.9792 -0.2027 0.2027 0.9792 -2.7087 4.6463)" class="st1" cx="21.3" cy="15.6" rx="1.8" ry="2.1"/>
<g>
	<path d="M17.1,13.2c-1.1-0.2-2.2,0.6-2.5,2c-0.3,1.3,0.4,2.6,1.5,2.8c1.1,0.2,2.2-0.6,2.5-2C18.9,14.7,18.3,13.4,17.1,13.2z
		 M16.2,17.6c-1-0.2-1.6-1.3-1.3-2.4s1.2-1.9,2.2-1.7c1,0.2,1.6,1.3,1.3,2.4S17.2,17.8,16.2,17.6z"/>
	<ellipse transform="matrix(0.2027 -0.9792 0.9792 0.2027 -2.6315 29.4594)" cx="16.8" cy="16.3" rx="0.8" ry="0.7"/>
	<path d="M20.8,13.2c1.1-0.2,2.2,0.6,2.5,2c0.3,1.3-0.4,2.6-1.5,2.8c-1.1,0.2-2.2-0.6-2.5-2C19,14.7,19.7,13.4,20.8,13.2z
		 M21.8,17.6c1-0.2,1.6-1.3,1.3-2.4s-1.2-1.9-2.2-1.7c-1,0.2-1.6,1.3-1.3,2.4S20.8,17.8,21.8,17.6z"/>
	<ellipse transform="matrix(0.9792 -0.2027 0.2027 0.9792 -2.8725 4.6375)" cx="21.2" cy="16.3" rx="0.7" ry="0.8"/>
</g>
</svg>