<?xml version="1.0" encoding="utf-8"?>
<!-- Generator: Adobe Illustrator 21.0.2, SVG Export Plug-In . SVG Version: 6.00 Build 0)  -->
<svg version="1.1" id="Layer_1" xmlns="http://www.w3.org/2000/svg" xmlns:xlink="http://www.w3.org/1999/xlink" x="0px" y="0px"
	 viewBox="0 0 38 38" style="enable-background:new 0 0 38 38;" xml:space="preserve">
<style type="text/css">
	.st0{clip-path:url(#SVGID_1_);}
	.st1{fill:#F7941D;}
	.st2{fill:#FFFFFF;}
	.st3{opacity:0.1;fill:#010101;}
	.st4{fill:#D1D3D4;}
</style>
<g>
	<defs>
		<circle id="SVGID_3_" cx="19" cy="19" r="17.7"/>
	</defs>
	<clipPath id="SVGID_1_">
		<use xlink:href="#SVGID_3_"  style="overflow:visible;"/>
	</clipPath>
	<g class="st0">
		<circle class="st1" cx="19" cy="19" r="17.7"/>
	</g>
	<g class="st0">
		<g>
			<path class="st2" d="M23.2,27c-0.2,0-0.5-0.2-0.5-0.5l-0.6-6.9h-6.2l-0.6,6.9c0,0.2-0.2,0.5-0.5,0.5c-0.2,0-0.4,0-0.6,0.1
				c0,0,0,0,0,0c0,0,0.2,0.4,0.6,0.9c0.2,0.3,0.4,0.6,0.7,0.9c0.3,0.3,0.5,0.6,0.8,0.9c0.3,0.3,0.6,0.6,0.9,0.8
				c0.3,0.3,0.6,0.5,0.9,0.7c0.5,0.4,0.9,0.6,0.9,0.6h0c0,0,0,0,0,0c0,0,0.4-0.2,0.9-0.6c0.3-0.2,0.6-0.4,0.9-0.7
				c0.3-0.3,0.6-0.5,0.9-0.8c0.3-0.3,0.6-0.6,0.8-0.9c0.3-0.3,0.5-0.6,0.7-0.9c0.3-0.5,0.5-0.9,0.6-0.9c0,0,0,0,0,0
				C23.5,27.1,23.3,27,23.2,27z"/>
			<g>
				<path class="st2" d="M25.7,16.6c-0.5-0.3-1.2,0.3-1.7,1.3c-0.4,1-0.3,2.1,0.2,2.5c0.5,0.3,1.2-0.3,1.7-1.3
					C26.3,18,26.2,16.9,25.7,16.6z"/>
				<path class="st2" d="M12.3,16.6c0.5-0.3,1.2,0.3,1.7,1.3c0.4,1,0.3,2.1-0.2,2.5c-0.5,0.3-1.2-0.3-1.7-1.3
					C11.7,18,11.8,16.9,12.3,16.6z"/>
			</g>
			<path class="st2" d="M25.9,14.7c0,4.8-3.1,10.3-6.9,10.3c-3.8,0-6.9-5.5-6.9-10.3c0-4.8,3.1-7.2,6.9-7.2
				C22.8,7.5,25.9,9.8,25.9,14.7z"/>
			<path class="st3" d="M19,25c-1.2,0-2.4-0.6-3.4-1.6l0,0.4c1,1,2.2,1.6,3.5,1.6c1.3,0,2.4-0.6,3.5-1.6l0-0.4
				C21.4,24.4,20.2,25,19,25z"/>
			<path class="st4" d="M31.3,29.2c1.2,1.5,0,7.5,0,7.5H6.7c0,0-1.1-6,0-7.5c1-1.3,5.5-1.9,7.5-2.1c0,0,0,0,0,0c0,0,0.2,0.4,0.6,0.9
				c0.2,0.3,0.4,0.6,0.7,0.9c0.3,0.3,0.5,0.6,0.8,0.9c0.3,0.3,0.6,0.6,0.9,0.8c0.3,0.3,0.6,0.5,0.9,0.7c0.5,0.4,0.9,0.6,0.9,0.6h0
				c0,0,0,0,0,0c0,0,0.4-0.2,0.9-0.6c0.3-0.2,0.6-0.4,0.9-0.7c0.3-0.3,0.6-0.5,0.9-0.8c0.3-0.3,0.6-0.6,0.8-0.9
				c0.3-0.3,0.5-0.6,0.7-0.9c0.3-0.5,0.5-0.9,0.6-0.9c0,0,0,0,0,0C25.8,27.3,30.2,27.9,31.3,29.2z"/>
		</g>
		<path class="st4" d="M25.9,13.9c0-0.3-0.1-0.6-0.1-0.9c-0.1-0.6-0.3-1.3-0.6-2c-0.3-0.7-0.8-1.4-1.4-1.9c-0.6-0.6-1.4-1-2.2-1.3
			c-0.8-0.3-1.7-0.4-2.6-0.4l-0.6,0c-0.2,0-0.4,0.1-0.7,0.1c-0.4,0.1-0.9,0.2-1.3,0.3C15.6,8,14.8,8.4,14.2,9
			c-0.6,0.6-1.1,1.2-1.4,1.9c-0.3,0.7-0.5,1.4-0.6,2c0,0.3-0.1,0.6-0.1,0.9c0,0.3,0,0.6,0,0.9c0,0.5,0.1,1,0.1,1.4
			c0.1,0.7,0.2,1.2,0.2,1.2l0.6,0.1c0,0,0.2-5.5,2.2-6.3c2.1-0.8,3.7,0,3.7,0s1.7-0.8,3.7,0c2.1,0.8,2.2,6.3,2.2,6.3l0.6-0.1
			c0,0,0.1-0.4,0.2-1.2c0.1-0.4,0.1-0.8,0.1-1.4C25.9,14.4,25.9,14.2,25.9,13.9z"/>
	</g>
</g>
<ellipse transform="matrix(0.2027 -0.9792 0.9792 0.2027 -2.0544 29.0457)" class="st2" cx="16.8" cy="15.8" rx="2" ry="1.7"/>
<ellipse transform="matrix(0.9792 -0.2027 0.2027 0.9792 -2.7594 4.6189)" class="st2" cx="21.2" cy="15.8" rx="1.7" ry="2"/>
<g>
	<path d="M17.3,13.6c-1-0.2-2.1,0.6-2.3,1.8c-0.3,1.2,0.4,2.4,1.4,2.6c1,0.2,2.1-0.6,2.3-1.8C18.9,14.9,18.3,13.8,17.3,13.6z
		 M16.4,17.7c-0.9-0.2-1.4-1.2-1.2-2.2s1.1-1.8,2-1.6s1.4,1.2,1.2,2.2S17.3,17.9,16.4,17.7z"/>
	<ellipse transform="matrix(0.2027 -0.9792 0.9792 0.2027 -2.6874 29.7504)" cx="16.9" cy="16.5" rx="0.7" ry="0.6"/>
	<path d="M20.7,13.6c1-0.2,2.1,0.6,2.3,1.8c0.3,1.2-0.4,2.4-1.4,2.6c-1,0.2-2.1-0.6-2.3-1.8C19,14.9,19.7,13.8,20.7,13.6z
		 M21.6,17.7c0.9-0.2,1.4-1.2,1.2-2.2c-0.2-1.1-1.1-1.8-2-1.6c-0.9,0.2-1.4,1.2-1.2,2.2C19.8,17.2,20.7,17.9,21.6,17.7z"/>
	<ellipse transform="matrix(0.9792 -0.2027 0.2027 0.9792 -2.912 4.6107)" cx="21.1" cy="16.5" rx="0.6" ry="0.7"/>
</g>
</svg>
