<svg width="231" height="60" viewBox="0 0 231 60" fill="none" xmlns="http://www.w3.org/2000/svg">
<g id="Frame" clip-path="url(#clip0_4_35)">
<g id="Group">
<path id="Vector" d="M48.0429 7.4016L42.533 29.9213L37.6527 11.8111C37.3379 10.7087 36.3933 9.92129 35.1339 9.92129H30.8834H26.6329C25.5309 9.92129 24.4289 10.7087 24.1141 11.8111L19.2339 29.9213L13.7239 7.4016C13.4091 6.29924 12.4645 5.51184 11.2051 5.51184L3.01894 6.6142C1.28724 6.6142 0.18526 8.18901 0.657539 9.76381L12.7794 50.7087C13.0942 51.8111 14.0388 52.5985 15.1408 52.5985H21.9101C23.0121 52.5985 23.9566 51.8111 24.2715 50.8662C25.5309 47.0866 27.5775 40 30.726 29.6063C33.8745 40 36.0785 47.0866 37.1805 50.8662C37.4953 51.9685 38.4399 52.5985 39.5419 52.5985H46.3112C47.4132 52.5985 48.3577 51.8111 48.6726 50.7087L60.7944 9.76381C61.2667 8.18901 60.0073 6.6142 58.433 6.6142L50.2469 5.51184C49.4597 5.51184 48.3577 6.29924 48.0429 7.4016Z" fill="#F7941D"/>
</g>
<g id="Group_2">
<path id="Vector_2" d="M175.086 25.5118L167.057 26.6142C165.798 26.7716 164.538 25.6693 164.696 24.4094C164.853 23.3071 164.853 22.2047 164.853 20.9449C164.853 14.4882 162.806 11.6535 158.713 12.126C155.565 12.4409 153.991 15.1181 153.991 20C153.991 23.3071 154.778 27.4016 156.037 31.9685L169.891 29.9213C170.993 29.7638 172.095 30.5512 172.252 31.811L172.724 37.1653C172.882 38.2677 172.095 39.2126 170.993 39.3701L158.084 41.5748L161.232 55.9055C161.39 57.0079 160.76 58.1102 159.658 58.2677L150.842 60.1575C149.74 60.4724 148.638 59.5276 148.481 58.4252L144.073 22.9921C143.915 21.4173 143.758 20 143.758 18.5827C143.758 7.71653 148.481 1.73227 158.241 0.314951C159.028 0.157471 159.815 0.157471 160.445 0.157471C167.214 0.157471 171.937 4.25196 174.771 12.7559C175.715 15.748 176.345 19.3701 176.817 23.4646C176.975 24.4094 176.188 25.3543 175.086 25.5118Z" fill="#F7941D"/>
</g>
<path id="Vector_3" d="M84.7228 7.0866C73.8604 4.88187 62.998 13.3858 60.4791 26.1417C57.8029 38.8976 64.4148 51.0236 75.2772 53.2283C86.1396 55.4331 97.0021 46.9291 99.5209 34.1732C102.197 21.4173 95.5852 9.29132 84.7228 7.0866ZM77.6386 41.7323C72.1287 40.6299 68.8227 34.4882 70.2396 28.0315C71.499 21.5748 77.0089 17.3228 82.5188 18.4252C88.0288 19.5275 91.3347 25.6693 89.9179 32.126C88.501 38.5827 82.9911 42.8346 77.6386 41.7323Z" fill="#F7941D"/>
<path id="Vector_4" d="M117.153 7.0866C128.015 4.88187 138.877 13.3858 141.396 26.1417C144.073 38.8976 137.461 51.0236 126.598 53.2283C115.736 55.4331 104.873 46.9291 102.355 34.1732C99.8357 21.4173 106.448 9.29132 117.153 7.0866ZM124.394 41.7323C129.904 40.6299 133.21 34.4882 131.793 28.0315C130.534 21.5748 125.024 17.3228 119.514 18.4252C114.004 19.5275 110.698 25.6693 112.115 32.126C113.532 38.5827 118.884 42.8346 124.394 41.7323Z" fill="#F7941D"/>
<path id="Vector_5" d="M86.5566 35.5153C87.3849 31.5126 85.2957 27.696 81.8903 26.9908C78.4848 26.2856 75.0527 28.9589 74.2244 32.9616C73.3961 36.9644 75.4853 40.7809 78.8907 41.4861C82.2961 42.1913 85.7282 39.5181 86.5566 35.5153Z" fill="black"/>
<path id="Vector_6" d="M123.058 41.4074C126.464 40.7022 128.553 36.8856 127.725 32.8829C126.896 28.8801 123.464 26.2069 120.059 26.9121C116.653 27.6173 114.564 31.4338 115.392 35.4366C116.221 39.4393 119.653 42.1125 123.058 41.4074Z" fill="black"/>
<g id="Group_3">
<path id="Vector_7" d="M229.083 40.1575C230.5 40.7874 230.972 42.3622 230.185 43.6221C225.777 50.8662 219.795 54.6457 212.553 55.1182C211.137 55.2756 209.72 55.1182 208.303 54.9607C202.478 54.3308 198.228 51.4961 195.394 46.7717C193.347 43.4646 192.245 39.2126 191.931 34.1733C191.773 31.9685 191.773 29.9213 192.088 28.0315C192.56 24.4095 193.347 21.2599 194.449 18.5827C197.126 12.126 201.376 8.50397 206.729 7.55909C207.831 7.40161 208.775 7.24413 209.72 7.24413C217.906 6.77169 223.888 10.3937 227.352 18.1103C228.611 20.7874 229.083 23.4646 229.555 27.0867C229.713 28.3465 228.768 29.6063 227.509 29.9213L201.691 34.3307C202.636 42.0473 206.099 45.5119 211.766 45.1969C213.341 45.0394 215.072 44.7244 216.804 43.7796C218.693 42.9922 220.267 41.4174 221.369 39.3701C221.999 38.2678 223.416 37.7953 224.518 38.2678L229.083 40.1575ZM209.09 17.6378C205.154 18.4252 202.793 20.7874 202.636 25.5119L216.647 23.4646C215.387 19.2126 213.498 17.1654 210.035 17.4804C209.877 17.4804 209.562 17.4804 209.09 17.6378Z" fill="#F7941D"/>
</g>
<path id="Vector_8" d="M176.66 28.9763L187.05 27.4015C188.152 27.2441 189.097 28.0315 189.254 29.1338L189.569 34.3307C189.569 35.2756 188.939 36.2204 187.995 36.3779L177.919 38.1102C176.817 38.2677 175.873 37.4803 175.715 36.5354L175.086 31.1811C174.928 30.0787 175.715 29.1338 176.66 28.9763Z" fill="black"/>
</g>
<defs>
<clipPath id="clip0_4_35">
<rect width="230" height="60" fill="white" transform="translate(0.5)"/>
</clipPath>
</defs>
</svg>
