<?xml version="1.0" encoding="utf-8"?>
<!-- Generator: Adobe Illustrator 21.0.2, SVG Export Plug-In . SVG Version: 6.00 Build 0)  -->
<svg version="1.1" id="Layer_1" xmlns="http://www.w3.org/2000/svg" xmlns:xlink="http://www.w3.org/1999/xlink" x="0px" y="0px"
	 viewBox="0 0 146.5 38.9" style="enable-background:new 0 0 146.5 38.9;" xml:space="preserve">
<style type="text/css">
	.st0{fill:#F7941D;}
	.st1{fill:#FFFFFF;}
</style>
<g>
	<g>
		<path class="st0" d="M30.6,5.4l-3.5,14.3L23.9,8.2c-0.2-0.7-0.8-1.2-1.6-1.2l-2.7,0l-2.7,0c-0.7,0-1.4,0.5-1.6,1.2l-3.1,11.5
			L8.7,5.4C8.5,4.7,7.9,4.2,7.2,4.2L1.9,4.9c-1.1,0-1.8,1-1.5,2l7.7,26c0.2,0.7,0.8,1.2,1.5,1.2H14c0.7,0,1.3-0.5,1.5-1.1
			c0.8-2.4,2.1-6.9,4.1-13.5c2,6.6,3.4,11.1,4.1,13.5c0.2,0.7,0.8,1.1,1.5,1.1h4.3c0.7,0,1.3-0.5,1.5-1.2l7.7-26c0.3-1-0.5-2-1.5-2
			l-5.2-0.7C31.4,4.2,30.8,4.7,30.6,5.4z"/>
	</g>
	<g>
		<path class="st0" d="M111.3,16.9l-5.1,0.7c-0.8,0.1-1.6-0.6-1.5-1.4c0.1-0.7,0.1-1.4,0.1-2.2c0-4.1-1.3-5.9-3.9-5.6
			c-2,0.2-3,1.9-3,5c0,2.1,0.5,4.7,1.3,7.6l8.8-1.3c0.7-0.1,1.4,0.4,1.5,1.2l0.3,3.4c0.1,0.7-0.4,1.3-1.1,1.4l-8.2,1.4l2,9.1
			c0.1,0.7-0.3,1.4-1,1.5L96,38.8c-0.7,0.2-1.4-0.4-1.5-1.1l-2.8-22.5c-0.1-1-0.2-1.9-0.2-2.8c0-6.9,3-10.7,9.2-11.6
			c0.5-0.1,1-0.1,1.4-0.1c4.3,0,7.3,2.6,9.1,8c0.6,1.9,1,4.2,1.3,6.8C112.4,16.2,111.9,16.8,111.3,16.9z"/>
	</g>
	<path class="st0" d="M53.8,5.2c-6.9-1.4-13.8,4-15.4,12.1c-1.7,8.1,2.5,15.8,9.4,17.2c6.9,1.4,13.8-4,15.4-12.1
		C64.9,14.3,60.7,6.6,53.8,5.2z M49.3,27.2c-3.5-0.7-5.6-4.6-4.7-8.7c0.8-4.1,4.3-6.8,7.8-6.1c3.5,0.7,5.6,4.6,4.7,8.7
		C56.2,25.2,52.7,27.9,49.3,27.2z"/>
	<path class="st0" d="M74.5,5.2c6.9-1.4,13.8,4,15.4,12.1c1.7,8.1-2.5,15.8-9.4,17.2c-6.9,1.4-13.8-4-15.4-12.1
		C63.4,14.3,67.6,6.6,74.5,5.2z M79,27.2c3.5-0.7,5.6-4.6,4.7-8.7s-4.3-6.8-7.8-6.1c-3.5,0.7-5.6,4.6-4.7,8.7S75.5,27.9,79,27.2z"/>
	<ellipse transform="matrix(0.2027 -0.9792 0.9792 0.2027 18.7755 67.8918)" class="st1" cx="51.1" cy="22.4" rx="4.7" ry="4"/>
	<ellipse transform="matrix(0.9792 -0.2027 0.2027 0.9792 -2.9407 16.1126)" class="st1" cx="77.2" cy="22.4" rx="4" ry="4.7"/>
	<g>
		<path class="st0" d="M145.5,26.2c0.9,0.4,1.2,1.4,0.7,2.2c-2.8,4.6-6.6,7-11.2,7.3c-0.9,0.1-1.8,0-2.7-0.1
			c-3.7-0.4-6.4-2.2-8.2-5.2c-1.3-2.1-2-4.8-2.2-8c-0.1-1.4-0.1-2.7,0.1-3.9c0.3-2.3,0.8-4.3,1.5-6c1.7-4.1,4.4-6.4,7.8-7
			c0.7-0.1,1.3-0.2,1.9-0.2c5.2-0.3,9,2,11.2,6.9c0.8,1.7,1.1,3.4,1.4,5.7c0.1,0.8-0.5,1.6-1.3,1.8l-16.4,2.8
			c0.6,4.9,2.8,7.1,6.4,6.9c1-0.1,2.1-0.3,3.2-0.9c1.2-0.5,2.2-1.5,2.9-2.8c0.4-0.7,1.3-1,2-0.7L145.5,26.2z M132.9,11.9
			c-2.5,0.5-4,2-4.1,5l8.9-1.3c-0.8-2.7-2-4-4.2-3.8C133.3,11.8,133.1,11.9,132.9,11.9z"/>
	</g>
	<path class="st1" d="M112.2,19.1l6.6-1c0.7-0.1,1.3,0.4,1.4,1.1l0.2,3.3c0,0.6-0.4,1.2-1,1.3l-6.4,1.1c-0.7,0.1-1.3-0.4-1.4-1
		l-0.4-3.4C111.1,19.8,111.6,19.2,112.2,19.1z"/>
</g>
</svg>
